<?xml version="1.0" standalone="no"?>
<!DOCTYPE svg PUBLIC "-//W3C//DTD SVG 20010904//EN"
 "http://www.w3.org/TR/2001/REC-SVG-20010904/DTD/svg10.dtd">
<svg version="1.0" xmlns="http://www.w3.org/2000/svg"
 width="350.000000pt" height="168.000000pt" viewBox="0 0 350.000000 168.000000"
 preserveAspectRatio="xMidYMid meet">

<g transform="translate(0.000000,168.000000) scale(0.100000,-0.100000)"
fill="#000000" stroke="none">
<path d="M677 1605 c-50 -19 -58 -25 -183 -140 -434 -401 -409 -371 -409 -490
1 -69 4 -86 27 -121 51 -79 128 -114 251 -114 61 0 89 -4 107 -17 52 -35 155
-127 155 -137 0 -7 -53 -13 -155 -16 -85 -3 -164 -9 -175 -14 -46 -21 -108
-81 -126 -123 -65 -153 32 -318 195 -330 88 -7 131 16 267 144 160 150 224
209 300 276 85 74 123 141 122 216 -1 70 -22 120 -73 171 -46 46 -89 60 -188
60 -40 0 -87 6 -105 14 -42 18 -177 133 -177 151 0 10 33 14 158 17 172 5 193
10 251 70 45 47 61 88 61 162 0 80 -22 130 -77 176 -68 57 -149 73 -226 45z"/>
<path d="M1605 1358 c-95 -24 -152 -61 -193 -129 -18 -29 -22 -52 -22 -112 0
-42 4 -87 10 -101 14 -38 73 -99 117 -120 21 -10 49 -24 63 -31 14 -6 52 -20
85 -29 61 -18 70 -21 140 -50 77 -33 115 -84 115 -154 0 -62 -47 -108 -134
-129 -65 -16 -75 -16 -160 1 -93 18 -125 27 -184 54 -19 9 -37 11 -42 6 -4 -5
-10 -34 -12 -64 -3 -54 -2 -55 32 -72 49 -23 192 -48 274 -48 37 0 100 8 140
17 148 35 221 116 221 248 0 106 -41 174 -141 230 -44 25 -237 99 -291 112
-35 8 -93 70 -94 101 -3 69 3 88 35 118 71 68 284 61 401 -12 31 -20 46 -3 52
58 l5 54 -58 21 c-121 41 -265 54 -359 31z"/>
<path d="M2223 1344 c-10 -5 -13 -107 -13 -464 0 -444 1 -460 19 -470 12 -6
120 -10 280 -10 l261 0 6 24 c3 13 4 38 2 57 l-3 34 -217 3 -218 2 -2 413 -3
412 -50 2 c-27 1 -56 0 -62 -3z"/>
<path d="M2724 1336 c-3 -8 -4 -31 -2 -52 l3 -39 130 -5 130 -5 3 -404 c1
-287 6 -408 14 -418 7 -9 27 -13 57 -11 l46 3 5 407 c3 256 9 411 15 417 6 6
67 12 135 13 l125 3 0 50 0 50 -328 3 c-274 2 -328 0 -333 -12z"/>
</g>
</svg>
